<svg xmlns="http://www.w3.org/2000/svg" viewBox="0 0 344.6 88.5"><defs><style>.cls-1{fill:#f4731c;}.cls-2{fill:#e23d90;}.cls-3{fill:#787d7f;}.cls-4{fill:#ea3984;}.cls-5{fill:#999;}.cls-6{fill:#fafafa;}</style></defs><title>iconosvariosmovil</title><g id="Capa_2" data-name="Capa 2"><g id="Capa_1-2" data-name="Capa 1"><g id="Capa_2-2" data-name="Capa 2"><g id="logo"><path class="cls-1" d="M22.75,18.45,17.15,25H.94l5.82-6.52ZM0,8.61V23.92l6-6.78V4.41Z"/><path class="cls-2" d="M29.29,16.31,22.51,25H17.15l5.6-6.52h-16l1.89-2.14ZM0,5.44V8.61l6-4.2V17.15l1.6-1.83V0Z"/><path class="cls-3" d="M40.36,17.41V18H38.93v4.76h-.59V18H36.9v-.59Zm1.1,2.94v2.41h-.58V17.41H42.6a1.32,1.32,0,0,1,1,.45,1.61,1.61,0,0,1,.36,1,1.41,1.41,0,0,1-.35,1.08,1.62,1.62,0,0,1-1.08.45l1.69,2.4H43.5l-1.69-2.41Zm.54-.56a1.74,1.74,0,0,0,1.21-.28.91.91,0,0,0,.18-.66,1,1,0,0,0-.19-.57.71.71,0,0,0-.6-.28H41.46v1.79Zm5.25,1.07H45.44l-.66,1.9h-.64l2-5.35h.5l2,5.35H48Zm-1.6-.59h1.4l-.7-2Zm6.59-2.86-1.79,5.35H49.9l-1.79-5.35h.61l1.45,4.39,1.45-4.39Zm.38,0H55.8V18H53.2v1.78h2.6v.59H53.2v1.81h2.6v.58H52.62ZM57,22.18h2.44v.58h-3V17.41H57ZM64.81,18a2,2,0,0,0-1.48.62,2.09,2.09,0,0,0-.61,1.51A2.1,2.1,0,0,0,65.81,22a2.07,2.07,0,0,0,.75-.69l.49.33a2.68,2.68,0,0,1-1,.89,2.65,2.65,0,0,1-1.26.32,2.56,2.56,0,0,1-1.9-.8,2.75,2.75,0,0,1,0-3.86,2.57,2.57,0,0,1,1.9-.81,2.65,2.65,0,0,1,1.26.32,2.77,2.77,0,0,1,1,.89l-.49.33a2.26,2.26,0,0,0-.75-.69A2.17,2.17,0,0,0,64.81,18Zm5.36-.61a2.57,2.57,0,0,1,1.9.81,2.68,2.68,0,0,1,0,3.8,2.64,2.64,0,0,1-3.73.06L68.28,22a2.75,2.75,0,0,1,0-3.86,2.55,2.55,0,0,1,1.89-.79Zm0,4.87a2.12,2.12,0,0,0,2.09-2.13,2.09,2.09,0,0,0-.61-1.51,2.06,2.06,0,0,0-2.91-.09l-.09.09A2.09,2.09,0,0,0,68,20.13a2.05,2.05,0,0,0,2.13,2.09Zm5.6-.54,1.67-4.27H78V22.8h-.59V19l-.17.41-.17.48-1,2.66H75.5l-1-2.66-.17-.48L74.12,19v3.74h-.58V17.41h.56Zm-14.66-.3a.75.75,0,1,0,.75.75.76.76,0,0,0-.75-.75h0Z"/><path class="cls-3" d="M10.54,14.06a.75.75,0,0,1-.56-.23.76.76,0,0,1-.24-.57V2.88A.75.75,0,0,1,10,2.31a.77.77,0,0,1,1.09,0l0,0a.74.74,0,0,1,.24.57V8.14l5.83-5.83a.82.82,0,0,1,.57-.24.78.78,0,0,1,.56.24.74.74,0,0,1,.24.57.74.74,0,0,1-.24.56L13.68,8.07,18.3,12.7a.79.79,0,0,1,0,1.13.75.75,0,0,1-.56.23.81.81,0,0,1-.57-.23l-3-3-3,3A.75.75,0,0,1,10.54,14.06ZM13,9.66l-.46-.46-1.21,1.21v.93Zm6,2.88a6.07,6.07,0,0,1-1.85-4.47A6.11,6.11,0,0,1,19,3.59a6.35,6.35,0,0,1,9,0l0,0a6.15,6.15,0,0,1,1.85,4.48A6.15,6.15,0,0,1,28,12.54a6.3,6.3,0,0,1-8.92.08Zm1.1-7.82a4.59,4.59,0,0,0-1.39,3.35,4.55,4.55,0,0,0,1.39,3.34,4.72,4.72,0,0,0,6.68,0v0a4.55,4.55,0,0,0,1.39-3.34,4.59,4.59,0,0,0-1.39-3.35A4.74,4.74,0,0,0,20.1,4.72Zm12.25,7.82a6.1,6.1,0,0,1-1.86-4.47,6.1,6.1,0,0,1,1.86-4.48,6.34,6.34,0,0,1,8.94,0,6.1,6.1,0,0,1,1.86,4.48,6.1,6.1,0,0,1-1.86,4.47,6.3,6.3,0,0,1-8.91,0Zm1.13-7.82a4.55,4.55,0,0,0-1.39,3.35,4.52,4.52,0,0,0,1.39,3.34,4.72,4.72,0,0,0,6.68,0v0a4.54,4.54,0,0,0,1.38-3.34,4.71,4.71,0,0,0-4.69-4.73h0A4.56,4.56,0,0,0,33.48,4.72Zm12.09.57v8a.75.75,0,0,1-.23.57A.8.8,0,0,1,44,13.31V2.88a.74.74,0,0,1,.49-.74,1,1,0,0,1,.34-.08,1.15,1.15,0,0,1,.67.25l5.7,8.39V2.88a.73.73,0,0,1,.23-.57A.77.77,0,0,1,52,2.07a.8.8,0,0,1,.56.24.81.81,0,0,1,.23.57V13.26a.67.67,0,0,1-.45.72.87.87,0,0,1-.91-.15Zm9.32,8.77a.87.87,0,0,1-.85-.68V2.77a.81.81,0,0,1,.8-.71.74.74,0,0,1,.8.66V13.38S55.51,14.06,54.89,14.06Zm21.51-.77a6,6,0,0,1-3.58,1.11,6.09,6.09,0,0,1-4.48-1.86,6.15,6.15,0,0,1-1.85-4.47,6.11,6.11,0,0,1,1.85-4.48,6.36,6.36,0,0,1,9,0l0,0a.8.8,0,0,1,0,1.13.79.79,0,0,1-1.13,0h0a4.74,4.74,0,0,0-6.69,0,4.58,4.58,0,0,0-1.38,3.35,4.54,4.54,0,0,0,1.38,3.34,4.72,4.72,0,0,0,6.68,0v0a2,2,0,0,0,.24-.26V9.76H75.19a.8.8,0,0,1-.8-.8h0a.79.79,0,0,1,.79-.79h2a.79.79,0,0,1,.81.77v4.53a.79.79,0,0,1-.23.56.75.75,0,0,1-.56.23.73.73,0,0,1-.57-.23.78.78,0,0,1-.24-.56Zm-17.76-8v8a.75.75,0,0,1-.23.57.79.79,0,0,1-.56.23.81.81,0,0,1-.57-.23.75.75,0,0,1-.23-.57V2.88a.74.74,0,0,1,.49-.74.94.94,0,0,1,.33-.08,1.11,1.11,0,0,1,.68.25l5.69,8.39V2.88a.74.74,0,0,1,.24-.57.76.76,0,0,1,.57-.24.8.8,0,0,1,.79.81h0V13.26a.67.67,0,0,1-.45.72.87.87,0,0,1-.91-.15Z"/></g><g id="telefono"><path class="cls-4" d="M149,19.77l-3.9-3.87a2,2,0,0,0-2.83,0l0,0-1.95,1.95-.38-.22a18.9,18.9,0,0,1-4.69-3.39,19.25,19.25,0,0,1-3.4-4.7l-.21-.37,1.31-1.31.64-.64a2,2,0,0,0,.07-2.83l0,0L129.75.56a2,2,0,0,0-2.83,0h0l-1.09,1.09h0a6.26,6.26,0,0,0-.9,1.59,6.82,6.82,0,0,0-.4,1.6C124,9.17,126,13,131.23,18.3c7.26,7.26,13.11,6.71,13.36,6.68a6.51,6.51,0,0,0,1.62-.4,6,6,0,0,0,1.58-.9h0l1.1-1.08a2,2,0,0,0,.11-2.82Z"/></g><g id="ubicacion"><path class="cls-5" d="M235,0a9.38,9.38,0,0,0-9.37,9.38c0,6.49,8.46,15,8.82,15.39A.76.76,0,0,0,235,25a.79.79,0,0,0,.56-.23c.35-.36,8.82-8.9,8.82-15.39A9.39,9.39,0,0,0,235,0Zm0,14.06a4.69,4.69,0,1,1,4.69-4.69h0A4.69,4.69,0,0,1,235,14.06Z"/></g><g id="calendario"><path class="cls-5" d="M344.07,4.1a1.74,1.74,0,0,0-1.25-.53H341V2.23a2.15,2.15,0,0,0-.65-1.57A2.17,2.17,0,0,0,338.8,0h-.89a2.13,2.13,0,0,0-1.58.66,2.11,2.11,0,0,0-.65,1.57V3.57h-5.36V2.23a2.12,2.12,0,0,0-.66-1.57A2.12,2.12,0,0,0,328.09,0h-.9a2.12,2.12,0,0,0-1.57.66A2.12,2.12,0,0,0,325,2.23V3.57h-1.78a1.81,1.81,0,0,0-1.79,1.79V23.21A1.81,1.81,0,0,0,323.18,25h19.64a1.74,1.74,0,0,0,1.25-.53,1.66,1.66,0,0,0,.53-1.26V5.36A1.69,1.69,0,0,0,344.07,4.1ZM327.19,23.21h-4v-4h4Zm0-4.91h-4V13.84h4Zm0-5.35h-4V9h4Zm-.31-6.39a.4.4,0,0,1-.13-.31v-4a.44.44,0,0,1,.44-.44h.9a.44.44,0,0,1,.44.44h0v4a.4.4,0,0,1-.13.31.41.41,0,0,1-.31.14h-.9A.41.41,0,0,1,326.88,6.56Zm5.67,16.65h-4.46v-4h4.46Zm0-4.91h-4.46V13.84h4.46Zm0-5.35h-4.46V9h4.46Zm5.36,10.26h-4.47v-4h4.47Zm0-4.91h-4.47V13.84h4.47Zm0-5.35h-4.47V9h4.47Zm-.32-6.39a.44.44,0,0,1-.13-.31v-4a.48.48,0,0,1,.13-.31.46.46,0,0,1,.32-.13h.89a.44.44,0,0,1,.31.13.41.41,0,0,1,.14.31v4a.48.48,0,0,1-.45.45h-.89A.43.43,0,0,1,337.59,6.56Zm5.23,16.65h-4v-4h4Zm0-4.91h-4V13.84h4Zm0-5.35h-4V9h4Z"/></g></g><polygon class="cls-6" points="39.86 75.83 39.86 62.83 32.86 69.16 39.86 75.83"/><polygon class="cls-4" points="0 49.83 0 88.5 39.86 88.5 39.86 75.83 32.86 69.16 39.86 62.83 39.86 49.83 0 49.83"/></g></g></svg>