<svg xmlns="http://www.w3.org/2000/svg" viewBox="0 0 25 268.67"><defs><style>.cls-1,.cls-2{fill:#fff;}.cls-2{fill-rule:evenodd;}</style></defs><title>iconosmovil</title><g id="Capa_2" data-name="Capa 2"><g id="Capa_1-2" data-name="Capa 1"><path class="cls-1" d="M7.71,8.53a3.2,3.2,0,1,0-3.2-3.2A3.2,3.2,0,0,0,7.71,8.53Zm12.8-6.4H12V9.6H3.11V0H.22V16H3.11V12.8H21.88V16h2.9V6.4A4.27,4.27,0,0,0,20.51,2.13Z"/><path class="cls-1" d="M5.05,139H.47v2.27H4Z"/><path class="cls-1" d="M21.48,141.23h3.05V139H20.41Z"/><path class="cls-1" d="M6.54,135.78H2.28v2.28H5.47Z"/><path class="cls-1" d="M20,138.06h2.74v-2.28H18.91Z"/><path class="cls-1" d="M8,132.61H4.55v2.27H7Z"/><path class="cls-1" d="M18.49,134.88h2v-2.27h-3Z"/><path class="cls-1" d="M9.53,129.43H6.82v2.27H8.47Z"/><path class="cls-1" d="M17,131.7h1.19v-2.27H15.92Z"/><path class="cls-1" d="M10.81,126.7l.19-.38.24-.52h.12V124h2.73v1.82h.12l.25.52.18.38.85,1.82h1.78l-.46-1.82H15.9V124h.91v-1.82H8.64V124h.91v2.72H8.64l-.45,1.82H10Z"/><path class="cls-1" d="M20.47,141.23,19.4,139l-.42-.9-1.07-2.28-.43-.9-1.07-2.27L16,131.7l-1.06-2.27-.43-.91-.86-1.82H11.82L11,128.52l-.43.91L9.47,131.7l-.43.91L8,134.88l-.42.9-1.07,2.28-.43.9L5,141.23l-.43.91H20.9Z"/><path class="cls-1" d="M24.41,65.88,22.55,64a2.85,2.85,0,0,1-4-4l-1.85-1.85a1.93,1.93,0,0,0-2.68,0L.58,71.56A1.86,1.86,0,0,0,0,72.9a1.82,1.82,0,0,0,.54,1.34L2.43,76.1a2.77,2.77,0,0,1,2-.82,2.75,2.75,0,0,1,2,.82,2.86,2.86,0,0,1,0,4L8.32,82A1.91,1.91,0,0,0,11,82L24.41,68.56a1.91,1.91,0,0,0,0-2.68Zm-4,3L11.27,78a1,1,0,0,1-1.34,0L4.58,72.63a.93.93,0,0,1,0-1.33l9.14-9.14a1,1,0,0,1,1.33,0l5.36,5.35a.93.93,0,0,1,0,1.33Z"/><path class="cls-1" d="M14.39,63.5l4.67,4.68L10.6,76.64,5.93,72Z"/><path class="cls-1" d="M23.35,192.44l-2.28-1.05-2.57-3.33a2.54,2.54,0,0,0-2-1h-14A2.45,2.45,0,0,0,0,189.5v7.69a2.45,2.45,0,0,0,2.49,2.41h.45a3.28,3.28,0,0,1-.16-1,3.47,3.47,0,1,1,6.94,0,3.59,3.59,0,0,1-.16,1H14.4a3.28,3.28,0,0,1-.16-1,3.47,3.47,0,1,1,6.94,0,3.59,3.59,0,0,1-.16,1h1.49A2.45,2.45,0,0,0,25,197.19V194.7A2.4,2.4,0,0,0,23.35,192.44Zm-8.16-.78a1,1,0,0,1-1,1H3.06a1,1,0,0,1-1-1V190a1,1,0,0,1,1-1H14.21a1,1,0,0,1,1,1Z"/><path class="cls-1" d="M6.25,195.75a2.81,2.81,0,0,0-2.81,2.81,2.64,2.64,0,0,0,.17.93h0a2.81,2.81,0,0,0,1.82,1.75l.08,0,.09,0,.09,0h.1l.08,0h.9l.08,0,.16,0,.32-.11a2.85,2.85,0,0,0,1.54-1.65h0a2.64,2.64,0,0,0,.16-.93A2.8,2.8,0,0,0,6.25,195.75Zm0,3.74a.94.94,0,1,1,.93-.93A.93.93,0,0,1,6.25,199.49Z"/><path class="cls-1" d="M17.75,195.75a2.81,2.81,0,0,0-2.81,2.81,2.64,2.64,0,0,0,.17.93h0a2.81,2.81,0,0,0,1.82,1.75l.08,0,.09,0,.09,0h.1l.08,0h.9l.08,0,.16,0,.32-.11a2.85,2.85,0,0,0,1.54-1.65h0a2.64,2.64,0,0,0,.16-.93A2.8,2.8,0,0,0,17.75,195.75Zm0,3.74a.94.94,0,1,1,.93-.93A.93.93,0,0,1,17.75,199.49Z"/><circle class="cls-1" cx="7.52" cy="255.97" r="1.4"/><path class="cls-2" d="M16.29,256a1.41,1.41,0,1,0,1.4,1.4A1.41,1.41,0,0,0,16.29,256Zm0,0a1.41,1.41,0,1,0,1.4,1.4A1.41,1.41,0,0,0,16.29,256Zm8.44-10.36A1.68,1.68,0,0,0,23.11,244c-3.05-.07-9.5-.15-10.1.45L.52,255.75c-.81.8-.08,2.83.73,3.64l7.81,8.68a2.06,2.06,0,0,0,2.91,0l11.35-10.65a4.67,4.67,0,0,0,1.44-2.59C24.91,252.49,24.8,248,24.73,245.61ZM7.52,258.55a2.61,2.61,0,1,1,2.61-2.61A2.61,2.61,0,0,1,7.52,258.55Zm5.6,5.18a.73.73,0,0,1-.84-.6l-1.95-12.27a.37.37,0,0,1,0-.11.73.73,0,0,1,1.46-.12l2,12.26A.74.74,0,0,1,13.12,263.73ZM16.29,260a2.62,2.62,0,1,1,2.61-2.62A2.61,2.61,0,0,1,16.29,260Zm5.85-12.32a1.41,1.41,0,1,1,1.41-1.4A1.4,1.4,0,0,1,22.14,247.67ZM16.29,256a1.41,1.41,0,1,0,1.4,1.4A1.41,1.41,0,0,0,16.29,256Z"/><circle class="cls-1" cx="7.52" cy="255.97" r="1.4"/><circle class="cls-1" cx="7.52" cy="255.97" r="1.4"/><circle class="cls-1" cx="16.29" cy="257.37" r="1.4"/><circle class="cls-1" cx="16.29" cy="257.37" r="1.4"/></g></g></svg>